<svg width="135" height="28" viewBox="0 0 135 28" fill="none" xmlns="http://www.w3.org/2000/svg">
<g clip-path="url(#clip0)">
<path d="M30.5332 27.3134H24.1281L22.6505 16.1615C22.5258 15.1611 22.4314 14.2886 22.3747 13.5364C22.2953 12.7957 22.216 11.7449 22.1328 10.3839C21.925 11.6053 21.6076 12.9664 21.173 14.4709C21.0823 14.7656 21.0143 15.0176 20.9652 15.227L17.5491 27.3134H12.9804L9.56431 15.227C9.5303 15.0254 9.46228 14.7733 9.35647 14.4709C8.87656 12.8849 8.55913 11.5239 8.41176 10.3839C8.32106 11.6751 8.23415 12.6406 8.15479 13.2727C8.12078 13.6023 8.06788 14.0831 7.99986 14.719C7.93184 15.3549 7.87894 15.8358 7.84493 16.1654L6.36739 27.3173H0L3.8809 1.51587H10.664L14.4579 14.8198C14.526 15.068 14.5713 15.227 14.594 15.2968C14.9265 16.4019 15.1495 17.4101 15.2628 18.3291C15.2855 18.0111 15.3724 17.4954 15.5198 16.778C15.5652 16.6035 15.739 15.9366 16.0337 14.7888L19.8693 1.51587H26.6712L30.5332 27.3134Z" fill="white"/>
<path d="M40.6572 27.3131V9.51497H46.7714V27.3131H40.6572ZM41.4281 4.93167H41.4621C41.4621 4.27248 41.6851 3.7335 42.131 3.31084C42.5769 2.85329 43.1173 2.62451 43.7446 2.62451C44.4096 2.62451 44.9538 2.84166 45.3846 3.27594C45.8154 3.71023 46.027 4.26085 46.027 4.93167C46.027 5.61413 45.804 6.17637 45.3581 6.6223C44.9236 7.07985 44.3832 7.30863 43.7446 7.30863C43.0908 7.30863 42.5429 7.06822 42.097 6.5874C41.6511 6.14148 41.4281 5.59086 41.4281 4.93167Z" fill="white"/>
<path d="M58.7656 27.3132V9.51513H64.3621V13.129C65.1519 11.7176 66.0891 10.6629 67.1736 9.95717C68.2241 9.28635 69.5014 8.95288 71.0016 8.95288C72.1352 8.95288 73.1404 9.12737 74.0209 9.48023C74.8938 9.87962 75.6005 10.4186 76.1408 11.1011C76.6321 11.7835 76.9609 12.5047 77.1196 13.2686C77.3161 14.2419 77.4143 15.5293 77.4143 17.1268V27.3132H71.2661V17.7783C71.2661 16.3319 71.0432 15.3005 70.5973 14.6762C70.1513 14.0286 69.4258 13.7068 68.4206 13.7068C67.166 13.7068 66.2402 14.1876 65.6469 15.1531C65.065 16.1148 64.774 17.6774 64.774 19.8411V27.3132H58.7656Z" fill="white"/>
<path d="M107.407 -0.000244141V27.3134H101.773V24.4246C100.995 25.6344 100.114 26.5263 99.1279 27.104C98.2134 27.7051 97.1365 28.0036 95.9008 28.0036C93.4747 28.0036 91.5362 27.1351 90.0889 25.394C88.6416 23.6569 87.916 21.3342 87.916 18.4338C87.916 15.6148 88.6416 13.3192 90.0964 11.5433C91.54 9.81779 93.4067 8.95309 95.6929 8.95309C97.1591 8.95309 98.3495 9.23227 99.264 9.78289C100.144 10.2909 100.968 11.1905 101.735 12.4894C101.69 12.1715 101.645 11.6907 101.599 11.0431C101.554 10.3374 101.531 9.75962 101.531 9.3137V-0.000244141H107.407ZM101.981 18.4415C101.981 17.0456 101.633 15.956 100.934 15.1688C100.19 14.3739 99.2073 13.9746 97.9791 13.9746C96.7435 13.9746 95.7685 14.3739 95.0581 15.1688C94.3477 15.9676 93.9924 17.0572 93.9924 18.4415C93.9924 19.8375 94.3477 20.9348 95.0581 21.7297C95.7572 22.5169 96.7283 22.9085 97.9791 22.9085C99.2148 22.9085 100.201 22.5169 100.934 21.7297C101.63 20.9426 101.981 19.8452 101.981 18.4415Z" fill="white"/>
<path d="M124.842 8.57666H127.963V15.2228H134.244V18.3326H127.963V25.006H124.842V18.3288H118.535V15.219H124.842V8.57666Z" fill="#46AFC0" stroke="#46AFC0" stroke-width="1.94059" stroke-miterlimit="10"/>
</g>
<defs>
<clipPath id="clip0">
<rect width="135" height="28" fill="white"/>
</clipPath>
</defs>
</svg>
